<svg width="574" height="319" viewBox="0 0 574 319" fill="none" xmlns="http://www.w3.org/2000/svg">
<path d="M43 26.4C50.3333 27.2 56.2 28.5 60.6 30.3C65.0667 32.1 68.3 34.4667 70.3 37.4C72.3 40.3333 73.3 44 73.3 48.4C73.3 53.2 71.7333 57.4 68.6 61C65.5333 64.5333 61.2667 67.2667 55.8 69.2C50.3333 71.0667 44.1 72 37.1 72C29.3 72 22.7 71.0333 17.3 69.1C11.9 67.1667 7.86667 64.6 5.2 61.4C2.53333 58.1333 1.2 54.5667 1.2 50.7C1.2 50.0333 1.4 49.5 1.8 49.1C2.26667 48.7 2.83333 48.5 3.5 48.5H24C25.4 48.5 26.5333 48.9333 27.4 49.8C28.5333 50.8667 29.8 51.6 31.2 52C32.6 52.3333 34.5667 52.5 37.1 52.5C43.4333 52.5 46.6 51.5333 46.6 49.6C46.6 48.8 46.1667 48.1333 45.3 47.6C44.5 47 43.0333 46.5 40.9 46.1C38.8333 45.6333 35.7667 45.1667 31.7 44.7C22.5667 43.6333 15.5667 41.3667 10.7 37.9C5.83333 34.3667 3.4 29.4 3.4 23C3.4 18.4667 4.76667 14.4667 7.5 11C10.2333 7.53333 14.1 4.83333 19.1 2.89999C24.1667 0.966662 30.0333 -3.8147e-06 36.7 -3.8147e-06C43.6333 -3.8147e-06 49.7 1.1 54.9 3.3C60.1 5.43333 64.0667 8.1 66.8 11.3C69.5333 14.5 70.9 17.6333 70.9 20.7C70.9 21.3667 70.6667 21.9 70.2 22.3C69.8 22.7 69.2333 22.9 68.5 22.9H47C45.8667 22.9 44.8333 22.5 43.9 21.7C43.1667 21.0333 42.3 20.5 41.3 20.1C40.3 19.7 38.7667 19.5 36.7 19.5C32.2333 19.5 30 20.4333 30 22.3C30 23.3 30.8667 24.1 32.6 24.7C34.3333 25.2333 37.8 25.8 43 26.4ZM166.861 51.5C167.594 51.5 168.228 51.7667 168.761 52.3C169.294 52.8333 169.561 53.4667 169.561 54.2V68.3C169.561 69.0333 169.294 69.6667 168.761 70.2C168.228 70.7333 167.594 71 166.861 71H103.661C102.928 71 102.294 70.7333 101.761 70.2C101.228 69.6667 100.961 69.0333 100.961 68.3V3.7C100.961 2.96666 101.228 2.33333 101.761 1.8C102.294 1.26666 102.928 0.999995 103.661 0.999995H165.861C166.594 0.999995 167.228 1.26666 167.761 1.8C168.294 2.33333 168.561 2.96666 168.561 3.7V17.8C168.561 18.5333 168.294 19.1667 167.761 19.7C167.228 20.2333 166.594 20.5 165.861 20.5H126.961V26.8H160.361C161.094 26.8 161.728 27.0667 162.261 27.6C162.794 28.1333 163.061 28.7667 163.061 29.5V42.5C163.061 43.2333 162.794 43.8667 162.261 44.4C161.728 44.9333 161.094 45.2 160.361 45.2H126.961V51.5H166.861ZM203.022 67.6C202.155 69.8667 200.655 71 198.522 71H179.622C179.022 71 178.489 70.8 178.022 70.4C177.622 69.9333 177.422 69.4 177.422 68.8L177.522 68.2L199.322 4.29999C199.589 3.43333 200.089 2.66666 200.822 1.99999C201.555 1.33333 202.555 0.999995 203.822 0.999995H231.622C232.889 0.999995 233.889 1.33333 234.622 1.99999C235.355 2.66666 235.855 3.43333 236.122 4.29999L257.922 68.2L258.022 68.8C258.022 69.4 257.789 69.9333 257.322 70.4C256.922 70.8 256.422 71 255.822 71H236.922C234.789 71 233.289 69.8667 232.422 67.6L229.922 60.6H205.522L203.022 67.6ZM217.722 20.3L210.622 41.1H224.822L217.722 20.3ZM306.883 26.4C314.216 27.2 320.083 28.5 324.483 30.3C328.949 32.1 332.183 34.4667 334.183 37.4C336.183 40.3333 337.183 44 337.183 48.4C337.183 53.2 335.616 57.4 332.483 61C329.416 64.5333 325.149 67.2667 319.683 69.2C314.216 71.0667 307.983 72 300.983 72C293.183 72 286.583 71.0333 281.183 69.1C275.783 67.1667 271.749 64.6 269.083 61.4C266.416 58.1333 265.083 54.5667 265.083 50.7C265.083 50.0333 265.283 49.5 265.683 49.1C266.149 48.7 266.716 48.5 267.383 48.5H287.883C289.283 48.5 290.416 48.9333 291.283 49.8C292.416 50.8667 293.683 51.6 295.083 52C296.483 52.3333 298.449 52.5 300.983 52.5C307.316 52.5 310.483 51.5333 310.483 49.6C310.483 48.8 310.049 48.1333 309.183 47.6C308.383 47 306.916 46.5 304.783 46.1C302.716 45.6333 299.649 45.1667 295.583 44.7C286.449 43.6333 279.449 41.3667 274.583 37.9C269.716 34.3667 267.283 29.4 267.283 23C267.283 18.4667 268.649 14.4667 271.383 11C274.116 7.53333 277.983 4.83333 282.983 2.89999C288.049 0.966662 293.916 -3.8147e-06 300.583 -3.8147e-06C307.516 -3.8147e-06 313.583 1.1 318.783 3.3C323.983 5.43333 327.949 8.1 330.683 11.3C333.416 14.5 334.783 17.6333 334.783 20.7C334.783 21.3667 334.549 21.9 334.083 22.3C333.683 22.7 333.116 22.9 332.383 22.9H310.883C309.749 22.9 308.716 22.5 307.783 21.7C307.049 21.0333 306.183 20.5 305.183 20.1C304.183 19.7 302.649 19.5 300.583 19.5C296.116 19.5 293.883 20.4333 293.883 22.3C293.883 23.3 294.749 24.1 296.483 24.7C298.216 25.2333 301.683 25.8 306.883 26.4ZM415.044 42.1C415.044 52.3 411.644 59.8333 404.844 64.7C398.11 69.5667 389.11 72 377.844 72C366.577 72 357.544 69.5667 350.744 64.7C344.01 59.8333 340.644 52.2333 340.644 41.9V30.1C340.644 23.3 342.244 17.6667 345.444 13.2C348.71 8.66666 353.144 5.33333 358.744 3.2C364.344 1.06666 370.71 -3.8147e-06 377.844 -3.8147e-06C384.977 -3.8147e-06 391.31 1.06666 396.844 3.2C402.444 5.33333 406.877 8.63333 410.144 13.1C413.41 17.5667 415.044 23.1667 415.044 29.9V42.1ZM367.644 44C367.644 46.7333 368.544 48.8333 370.344 50.3C372.21 51.7667 374.71 52.5 377.844 52.5C380.977 52.5 383.444 51.7667 385.244 50.3C387.11 48.7667 388.044 46.6333 388.044 43.9V28.1C388.044 25.3667 387.11 23.2667 385.244 21.8C383.444 20.2667 380.977 19.5 377.844 19.5C374.71 19.5 372.21 20.2333 370.344 21.7C368.544 23.1667 367.644 25.2667 367.644 28V44ZM479.105 0.999995C479.838 0.999995 480.471 1.26666 481.005 1.8C481.538 2.33333 481.805 2.96666 481.805 3.7V68.3C481.805 69.0333 481.538 69.6667 481.005 70.2C480.471 70.7333 479.838 71 479.105 71H463.005C461.405 71 460.071 70.3 459.005 68.9L437.205 41.1V68.3C437.205 69.0333 436.938 69.6667 436.405 70.2C435.871 70.7333 435.238 71 434.505 71H415.905C415.171 71 414.538 70.7333 414.005 70.2C413.471 69.6667 413.205 69.0333 413.205 68.3V3.7C413.205 2.96666 413.471 2.33333 414.005 1.8C414.538 1.26666 415.171 0.999995 415.905 0.999995H432.105C433.705 0.999995 435.005 1.66666 436.005 3L457.805 33.1V3.7C457.805 2.96666 458.071 2.33333 458.605 1.8C459.138 1.26666 459.771 0.999995 460.505 0.999995H479.105ZM543.266 26.4C550.599 27.2 556.466 28.5 560.866 30.3C565.332 32.1 568.566 34.4667 570.566 37.4C572.566 40.3333 573.566 44 573.566 48.4C573.566 53.2 571.999 57.4 568.866 61C565.799 64.5333 561.532 67.2667 556.066 69.2C550.599 71.0667 544.366 72 537.366 72C529.566 72 522.966 71.0333 517.566 69.1C512.166 67.1667 508.132 64.6 505.466 61.4C502.799 58.1333 501.466 54.5667 501.466 50.7C501.466 50.0333 501.666 49.5 502.066 49.1C502.532 48.7 503.099 48.5 503.766 48.5H524.266C525.666 48.5 526.799 48.9333 527.666 49.8C528.799 50.8667 530.066 51.6 531.466 52C532.866 52.3333 534.832 52.5 537.366 52.5C543.699 52.5 546.866 51.5333 546.866 49.6C546.866 48.8 546.432 48.1333 545.566 47.6C544.766 47 543.299 46.5 541.166 46.1C539.099 45.6333 536.032 45.1667 531.966 44.7C522.832 43.6333 515.832 41.3667 510.966 37.9C506.099 34.3667 503.666 29.4 503.666 23C503.666 18.4667 505.032 14.4667 507.766 11C510.499 7.53333 514.366 4.83333 519.366 2.89999C524.432 0.966662 530.299 -3.8147e-06 536.966 -3.8147e-06C543.899 -3.8147e-06 549.966 1.1 555.166 3.3C560.366 5.43333 564.332 8.1 567.066 11.3C569.799 14.5 571.166 17.6333 571.166 20.7C571.166 21.3667 570.932 21.9 570.466 22.3C570.066 22.7 569.499 22.9 568.766 22.9H547.266C546.132 22.9 545.099 22.5 544.166 21.7C543.432 21.0333 542.566 20.5 541.566 20.1C540.566 19.7 539.032 19.5 536.966 19.5C532.499 19.5 530.266 20.4333 530.266 22.3C530.266 23.3 531.132 24.1 532.866 24.7C534.599 25.2333 538.066 25.8 543.266 26.4ZM74.7 166.1C74.7 176.3 71.3 183.833 64.5 188.7C57.7667 193.567 48.7667 196 37.5 196C26.2333 196 17.2 193.567 10.4 188.7C3.66667 183.833 0.3 176.233 0.3 165.9V154.1C0.3 147.3 1.9 141.667 5.1 137.2C8.36667 132.667 12.8 129.333 18.4 127.2C24 125.067 30.3667 124 37.5 124C44.6333 124 50.9667 125.067 56.5 127.2C62.1 129.333 66.5333 132.633 69.8 137.1C73.0667 141.567 74.7 147.167 74.7 153.9V166.1ZM27.3 168C27.3 170.733 28.2 172.833 30 174.3C31.8667 175.767 34.3667 176.5 37.5 176.5C40.6333 176.5 43.1 175.767 44.9 174.3C46.7667 172.767 47.7 170.633 47.7 167.9V152.1C47.7 149.367 46.7667 147.267 44.9 145.8C43.1 144.267 40.6333 143.5 37.5 143.5C34.3667 143.5 31.8667 144.233 30 145.7C28.2 147.167 27.3 149.267 27.3 152V168ZM147.761 125C148.494 125 149.128 125.267 149.661 125.8C150.194 126.333 150.461 126.967 150.461 127.7V142.9C150.461 143.633 150.194 144.267 149.661 144.8C149.128 145.333 148.494 145.6 147.761 145.6H108.461V152H141.261C141.994 152 142.628 152.267 143.161 152.8C143.694 153.333 143.961 153.967 143.961 154.7V169.8C143.961 170.533 143.694 171.167 143.161 171.7C142.628 172.233 141.994 172.5 141.261 172.5H108.461V192.3C108.461 193.033 108.194 193.667 107.661 194.2C107.128 194.733 106.494 195 105.761 195H84.1609C83.4276 195 82.7943 194.733 82.2609 194.2C81.7276 193.667 81.4609 193.033 81.4609 192.3V127.7C81.4609 126.967 81.7276 126.333 82.2609 125.8C82.7943 125.267 83.4276 125 84.1609 125H147.761ZM300.483 125C301.083 125 301.583 125.233 301.983 125.7C302.449 126.1 302.683 126.567 302.683 127.1C302.683 127.5 302.583 127.9 302.383 128.3L277.183 170V192.3C277.183 193.033 276.916 193.667 276.383 194.2C275.849 194.733 275.216 195 274.483 195H253.183C252.449 195 251.816 194.733 251.283 194.2C250.749 193.667 250.483 193.033 250.483 192.3V170L225.383 128.3C225.183 127.9 225.083 127.533 225.083 127.2C225.083 126.6 225.283 126.1 225.683 125.7C226.149 125.233 226.683 125 227.283 125H248.383C250.249 125 251.616 125.767 252.483 127.3L263.783 147.1L275.383 127.5C276.383 125.833 277.783 125 279.583 125H300.483ZM386.044 166.1C386.044 176.3 382.644 183.833 375.844 188.7C369.11 193.567 360.11 196 348.844 196C337.577 196 328.544 193.567 321.744 188.7C315.01 183.833 311.644 176.233 311.644 165.9V154.1C311.644 147.3 313.244 141.667 316.444 137.2C319.71 132.667 324.144 129.333 329.744 127.2C335.344 125.067 341.71 124 348.844 124C355.977 124 362.31 125.067 367.844 127.2C373.444 129.333 377.877 132.633 381.144 137.1C384.41 141.567 386.044 147.167 386.044 153.9V166.1ZM338.644 168C338.644 170.733 339.544 172.833 341.344 174.3C343.21 175.767 345.71 176.5 348.844 176.5C351.977 176.5 354.444 175.767 356.244 174.3C358.11 172.767 359.044 170.633 359.044 167.9V152.1C359.044 149.367 358.11 147.267 356.244 145.8C354.444 144.267 351.977 143.5 348.844 143.5C345.71 143.5 343.21 144.233 341.344 145.7C339.544 147.167 338.644 149.267 338.644 152V168ZM427.305 196C416.105 196 407.205 193.567 400.605 188.7C394.071 183.833 390.805 176.233 390.805 165.9V127.7C390.805 126.967 391.071 126.333 391.605 125.8C392.138 125.267 392.771 125 393.505 125H414.405C415.138 125 415.771 125.267 416.305 125.8C416.838 126.333 417.105 126.967 417.105 127.7V167.5C417.105 170.233 418.005 172.333 419.805 173.8C421.671 175.267 424.171 176 427.305 176C430.438 176 432.905 175.267 434.705 173.8C436.571 172.333 437.505 170.233 437.505 167.5V127.7C437.505 126.967 437.771 126.333 438.305 125.8C438.838 125.267 439.471 125 440.205 125H461.105C461.838 125 462.471 125.267 463.005 125.8C463.538 126.333 463.805 126.967 463.805 127.7V165.9C463.805 176.233 460.505 183.833 453.905 188.7C447.371 193.567 438.505 196 427.305 196ZM536.466 191.9C536.599 192.167 536.666 192.467 536.666 192.8C536.666 193.4 536.432 193.933 535.966 194.4C535.566 194.8 535.066 195 534.466 195H511.766C510.832 195 509.966 194.767 509.166 194.3C508.432 193.833 507.899 193.233 507.566 192.5L498.766 172.7H490.366V192.3C490.366 193.033 490.099 193.667 489.566 194.2C489.032 194.733 488.399 195 487.666 195H466.066C465.332 195 464.699 194.733 464.166 194.2C463.632 193.667 463.366 193.033 463.366 192.3V127.7C463.366 126.967 463.632 126.333 464.166 125.8C464.699 125.267 465.332 125 466.066 125H504.966C510.966 125 516.199 125.967 520.666 127.9C525.199 129.833 528.666 132.633 531.066 136.3C533.466 139.967 534.666 144.267 534.666 149.2C534.666 158.267 531.166 164.833 524.166 168.9L536.466 191.9ZM502.866 154.2C504.332 154.2 505.466 153.733 506.266 152.8C507.066 151.8 507.466 150.567 507.466 149.1C507.466 147.633 507.066 146.367 506.266 145.3C505.532 144.167 504.399 143.6 502.866 143.6H490.366V154.2H502.866ZM37.2 249C48.4667 249 57.4667 251.433 64.2 256.3C71 261.167 74.4 268.7 74.4 278.9V289.1C74.4 299.5 71.0333 307.1 64.3 311.9C57.6333 316.633 48.6 319 37.2 319H5.3C4.56667 319 3.93333 318.733 3.4 318.2C2.86667 317.667 2.6 317.033 2.6 316.3V251.7C2.6 250.967 2.86667 250.333 3.4 249.8C3.93333 249.267 4.56667 249 5.3 249H37.2ZM37.7 299.5C40.8333 299.5 43.3 298.767 45.1 297.3C46.9667 295.767 47.9 293.633 47.9 290.9V277.1C47.9 274.367 46.9667 272.267 45.1 270.8C43.3 269.267 40.8333 268.5 37.7 268.5H28.6V299.5H37.7ZM115.561 315.6C114.694 317.867 113.194 319 111.061 319H92.1609C91.5609 319 91.0276 318.8 90.5609 318.4C90.1609 317.933 89.9609 317.4 89.9609 316.8L90.0609 316.2L111.861 252.3C112.128 251.433 112.628 250.667 113.361 250C114.094 249.333 115.094 249 116.361 249H144.161C145.428 249 146.428 249.333 147.161 250C147.894 250.667 148.394 251.433 148.661 252.3L170.461 316.2L170.561 316.8C170.561 317.4 170.328 317.933 169.861 318.4C169.461 318.8 168.961 319 168.361 319H149.461C147.328 319 145.828 317.867 144.961 315.6L142.461 308.6H118.061L115.561 315.6ZM130.261 268.3L123.161 289.1H137.361L130.261 268.3ZM284.522 249C285.122 249 285.622 249.233 286.022 249.7C286.489 250.1 286.722 250.567 286.722 251.1C286.722 251.5 286.622 251.9 286.422 252.3L261.222 294V316.3C261.222 317.033 260.955 317.667 260.422 318.2C259.889 318.733 259.255 319 258.522 319H237.222C236.489 319 235.855 318.733 235.322 318.2C234.789 317.667 234.522 317.033 234.522 316.3V294L209.422 252.3C209.222 251.9 209.122 251.533 209.122 251.2C209.122 250.6 209.322 250.1 209.722 249.7C210.189 249.233 210.722 249 211.322 249H232.422C234.289 249 235.655 249.767 236.522 251.3L247.822 271.1L259.422 251.5C260.422 249.833 261.822 249 263.622 249H284.522Z" fill="#3C3C3C"/>
</svg>
